<svg width="16" height="16" viewBox="0 0 16 16" fill="none" xmlns="http://www.w3.org/2000/svg">
<path fill-rule="evenodd" clip-rule="evenodd" d="M8.00002 11.3333C7.66268 11.3333 7.34002 11.178 7.11602 10.9053L4.30735 7.50665C3.97135 7.09931 3.90402 6.52131 4.13468 6.03265C4.33802 5.60131 4.74268 5.33331 5.19135 5.33331H10.8087C11.2574 5.33331 11.662 5.60131 11.8654 6.03265C12.096 6.52131 12.0287 7.09931 11.6934 7.50598L8.88402 10.9053C8.66002 11.178 8.33735 11.3333 8.00002 11.3333" fill="#757575"/>
<mask id="mask0_2995_3330" style="mask-type:luminance" maskUnits="userSpaceOnUse" x="3" y="5" width="10" height="7">
<path fill-rule="evenodd" clip-rule="evenodd" d="M8.00002 11.3333C7.66268 11.3333 7.34002 11.178 7.11602 10.9053L4.30735 7.50665C3.97135 7.09931 3.90402 6.52131 4.13468 6.03265C4.33802 5.60131 4.74268 5.33331 5.19135 5.33331H10.8087C11.2574 5.33331 11.662 5.60131 11.8654 6.03265C12.096 6.52131 12.0287 7.09931 11.6934 7.50598L8.88402 10.9053C8.66002 11.178 8.33735 11.3333 8.00002 11.3333" fill="white"/>
</mask>
<g mask="url(#mask0_2995_3330)">
</g>
</svg>
