<svg width="20" height="19" viewBox="0 0 20 19" fill="none" xmlns="http://www.w3.org/2000/svg">
<path fill-rule="evenodd" clip-rule="evenodd" d="M7.93392 12.252C7.93392 12.6645 7.57767 13.002 7.14225 13.002C6.70684 13.002 6.35059 12.6645 6.35059 12.252V9.25195C6.35059 8.83945 6.70684 8.50195 7.14225 8.50195C7.57767 8.50195 7.93392 8.83945 7.93392 9.25195V12.252ZM12.6839 12.252C12.6839 12.6645 12.3277 13.002 11.8923 13.002C11.4568 13.002 11.1006 12.6645 11.1006 12.252V9.25195C11.1006 8.83945 11.4568 8.50195 11.8923 8.50195C12.3277 8.50195 12.6839 8.83945 12.6839 9.25195V12.252ZM14.2673 14.502C14.2673 14.9152 13.9126 15.252 13.4756 15.252H5.55892C5.12192 15.252 4.76725 14.9152 4.76725 14.502V6.25195H14.2673V14.502ZM7.93392 3.49795C7.93392 3.3817 8.10334 3.25195 8.32975 3.25195H10.7048C10.9312 3.25195 11.1006 3.3817 11.1006 3.49795V4.75195H7.93392V3.49795ZM16.6423 4.75195H15.8506H12.6839V3.49795C12.6839 2.53495 11.7965 1.75195 10.7048 1.75195H8.32975C7.23804 1.75195 6.35059 2.53495 6.35059 3.49795V4.75195H3.18392H2.39225C1.95684 4.75195 1.60059 5.08945 1.60059 5.50195C1.60059 5.91445 1.95684 6.25195 2.39225 6.25195H3.18392V14.502C3.18392 15.7425 4.2495 16.752 5.55892 16.752H13.4756C14.785 16.752 15.8506 15.7425 15.8506 14.502V6.25195H16.6423C17.0777 6.25195 17.4339 5.91445 17.4339 5.50195C17.4339 5.08945 17.0777 4.75195 16.6423 4.75195Z" fill="#C5CEE0"/>
<mask id="mask0_3140_2999" style="mask-type:alpha" maskUnits="userSpaceOnUse" x="1" y="1" width="17" height="16">
<path fill-rule="evenodd" clip-rule="evenodd" d="M7.93392 12.252C7.93392 12.6645 7.57767 13.002 7.14225 13.002C6.70684 13.002 6.35059 12.6645 6.35059 12.252V9.25195C6.35059 8.83945 6.70684 8.50195 7.14225 8.50195C7.57767 8.50195 7.93392 8.83945 7.93392 9.25195V12.252ZM12.6839 12.252C12.6839 12.6645 12.3277 13.002 11.8923 13.002C11.4568 13.002 11.1006 12.6645 11.1006 12.252V9.25195C11.1006 8.83945 11.4568 8.50195 11.8923 8.50195C12.3277 8.50195 12.6839 8.83945 12.6839 9.25195V12.252ZM14.2673 14.502C14.2673 14.9152 13.9126 15.252 13.4756 15.252H5.55892C5.12192 15.252 4.76725 14.9152 4.76725 14.502V6.25195H14.2673V14.502ZM7.93392 3.49795C7.93392 3.3817 8.10334 3.25195 8.32975 3.25195H10.7048C10.9312 3.25195 11.1006 3.3817 11.1006 3.49795V4.75195H7.93392V3.49795ZM16.6423 4.75195H15.8506H12.6839V3.49795C12.6839 2.53495 11.7965 1.75195 10.7048 1.75195H8.32975C7.23804 1.75195 6.35059 2.53495 6.35059 3.49795V4.75195H3.18392H2.39225C1.95684 4.75195 1.60059 5.08945 1.60059 5.50195C1.60059 5.91445 1.95684 6.25195 2.39225 6.25195H3.18392V14.502C3.18392 15.7425 4.2495 16.752 5.55892 16.752H13.4756C14.785 16.752 15.8506 15.7425 15.8506 14.502V6.25195H16.6423C17.0777 6.25195 17.4339 5.91445 17.4339 5.50195C17.4339 5.08945 17.0777 4.75195 16.6423 4.75195Z" fill="white"/>
</mask>
<g mask="url(#mask0_3140_2999)">
</g>
</svg>
