<svg width="25" height="25" viewBox="0 0 25 25" fill="none" xmlns="http://www.w3.org/2000/svg">
<path d="M21.0192 6.73842C21.0212 8.66842 19.4528 10.24 17.5228 10.2421C15.5928 10.2441 14.0212 8.67568 14.0192 6.74568C14.0172 4.81568 15.5856 3.24405 17.5156 3.24205C19.4456 3.24005 21.0172 4.80842 21.0192 6.73842ZM19.0247 12.0305C18.5248 12.161 18.0249 12.2415 17.5249 12.242C16.067 12.2409 14.669 11.6621 13.637 10.6322C12.6051 9.60244 12.0233 8.20563 12.0192 6.74775C12.0177 5.27775 12.5963 3.94715 13.5153 2.9562C13.3335 2.73393 13.1045 2.555 12.8449 2.43244C12.5853 2.30988 12.3016 2.24679 12.0145 2.24776C10.9145 2.2489 10.0155 3.14983 10.0166 4.24983L10.0169 4.53983C7.04781 5.42291 5.02064 8.15501 5.02386 11.255L5.03008 17.255L3.03215 19.2571L3.03319 20.2571L21.0332 20.2384L21.0321 19.2384L19.0301 17.2405L19.0247 12.0305ZM12.0363 23.2477C13.1463 23.2466 14.0354 22.3557 14.0342 21.2457L10.0342 21.2498C10.0348 21.7803 10.246 22.2887 10.6215 22.6634C10.9969 23.0381 11.5059 23.2483 12.0363 23.2477Z" fill="#0A0A0A"/>
<circle cx="17.5192" cy="6.74222" r="3.5" transform="rotate(-0.0593957 17.5192 6.74222)" fill="#4A85F6"/>
</svg>
