<svg width="39" height="39" viewBox="0 0 39 39" fill="none" xmlns="http://www.w3.org/2000/svg">
<path d="M31.6875 4.26562H28.6406V3.65625C28.6406 3.1714 28.448 2.70641 28.1052 2.36357C27.7623 2.02073 27.2973 1.82813 26.8125 1.82812C26.3277 1.82813 25.8627 2.02073 25.5198 2.36357C25.177 2.70641 24.9844 3.1714 24.9844 3.65625V4.26562H14.0156V3.65625C14.0156 3.1714 13.823 2.70641 13.4802 2.36357C13.1373 2.02073 12.6723 1.82813 12.1875 1.82812C11.7027 1.82813 11.2377 2.02073 10.8948 2.36357C10.552 2.70641 10.3594 3.1714 10.3594 3.65625V4.26562H7.3125C6.50442 4.26562 5.72943 4.58663 5.15803 5.15803C4.58663 5.72943 4.26563 6.50442 4.26562 7.3125V31.6875C4.26563 32.4956 4.58663 33.2706 5.15803 33.842C5.72943 34.4134 6.50442 34.7344 7.3125 34.7344H31.6875C32.4956 34.7344 33.2706 34.4134 33.842 33.842C34.4134 33.2706 34.7344 32.4956 34.7344 31.6875V7.3125C34.7344 6.50442 34.4134 5.72943 33.842 5.15803C33.2706 4.58663 32.4956 4.26562 31.6875 4.26562ZM10.3594 7.92188C10.3594 8.40672 10.552 8.87172 10.8948 9.21455C11.2377 9.55739 11.7027 9.75 12.1875 9.75C12.6723 9.75 13.1373 9.55739 13.4802 9.21455C13.823 8.87172 14.0156 8.40672 14.0156 7.92188H24.9844C24.9844 8.40672 25.177 8.87172 25.5198 9.21455C25.8627 9.55739 26.3277 9.75 26.8125 9.75C27.2973 9.75 27.7623 9.55739 28.1052 9.21455C28.448 8.87172 28.6406 8.40672 28.6406 7.92188H31.0781V11.5781H7.92188V7.92188H10.3594ZM7.92188 31.0781V15.2344H31.0781V31.0781H7.92188Z" fill="#4A85F6"/>
</svg>
