<svg width="22" height="18" viewBox="0 0 22 18" fill="none" xmlns="http://www.w3.org/2000/svg">
<path fill-rule="evenodd" clip-rule="evenodd" d="M8.94398 0.25H13.056C14.894 0.25 16.35 0.25 17.489 0.403C18.661 0.561 19.61 0.893 20.359 1.641C21.107 2.39 21.439 3.339 21.597 4.511C21.687 5.184 21.724 5.967 21.739 6.874C21.7521 6.95001 21.7534 7.02758 21.743 7.104C21.75 7.67 21.75 8.282 21.75 8.944V9.056C21.75 10.894 21.75 12.35 21.597 13.489C21.439 14.661 21.107 15.61 20.359 16.359C19.61 17.107 18.661 17.439 17.489 17.597C16.349 17.75 14.894 17.75 13.056 17.75H8.94398C7.10598 17.75 5.64999 17.75 4.51099 17.597C3.33899 17.439 2.38999 17.107 1.64099 16.359C0.892985 15.61 0.560985 14.661 0.402985 13.489C0.249985 12.349 0.249985 10.894 0.249985 9.056V8.944C0.249985 8.282 0.249985 7.67 0.256985 7.104C0.246263 7.02763 0.247275 6.95007 0.259985 6.874C0.275985 5.967 0.312985 5.184 0.402985 4.511C0.560985 3.339 0.892985 2.39 1.64099 1.641C2.38999 0.893 3.33899 0.561 4.51099 0.403C5.65099 0.25 7.10598 0.25 8.94398 0.25ZM1.75199 7.75C1.74999 8.138 1.74999 8.554 1.74999 9C1.74999 10.907 1.75199 12.262 1.88999 13.29C2.02499 14.295 2.27898 14.875 2.70198 15.298C3.12498 15.721 3.70499 15.975 4.71099 16.11C5.73899 16.248 7.09298 16.25 8.99998 16.25H13C14.907 16.25 16.262 16.248 17.29 16.11C18.295 15.975 18.875 15.721 19.298 15.298C19.721 14.875 19.975 14.295 20.11 13.289C20.248 12.261 20.25 10.907 20.25 9C20.25 8.554 20.25 8.138 20.248 7.75H1.75199ZM20.224 6.25H1.77599C1.79599 5.663 1.82999 5.156 1.88999 4.71C2.02499 3.705 2.27898 3.125 2.70198 2.702C3.12498 2.279 3.70499 2.025 4.71099 1.89C5.73899 1.752 7.09298 1.75 8.99998 1.75H13C14.907 1.75 16.262 1.752 17.29 1.89C18.295 2.025 18.875 2.279 19.298 2.702C19.721 3.125 19.975 3.705 20.11 4.711C20.17 5.156 20.204 5.663 20.224 6.25ZM4.24999 13C4.24999 12.8011 4.329 12.6103 4.46966 12.4697C4.61031 12.329 4.80107 12.25 4.99999 12.25H8.99998C9.1989 12.25 9.38966 12.329 9.53031 12.4697C9.67097 12.6103 9.74998 12.8011 9.74998 13C9.74998 13.1989 9.67097 13.3897 9.53031 13.5303C9.38966 13.671 9.1989 13.75 8.99998 13.75H4.99999C4.80107 13.75 4.61031 13.671 4.46966 13.5303C4.329 13.3897 4.24999 13.1989 4.24999 13ZM10.75 13C10.75 12.8011 10.829 12.6103 10.9697 12.4697C11.1103 12.329 11.3011 12.25 11.5 12.25H13C13.1989 12.25 13.3897 12.329 13.5303 12.4697C13.671 12.6103 13.75 12.8011 13.75 13C13.75 13.1989 13.671 13.3897 13.5303 13.5303C13.3897 13.671 13.1989 13.75 13 13.75H11.5C11.3011 13.75 11.1103 13.671 10.9697 13.5303C10.829 13.3897 10.75 13.1989 10.75 13Z" fill="#757575"/>
</svg>
