<svg width="22" height="18" viewBox="0 0 22 18" fill="none" xmlns="http://www.w3.org/2000/svg">
<path fill-rule="evenodd" clip-rule="evenodd" d="M8.94411 0.25H13.0561C14.8941 0.25 16.3501 0.25 17.4891 0.403C18.6611 0.561 19.6101 0.893 20.3591 1.641C21.1071 2.39 21.4391 3.339 21.5971 4.511C21.6871 5.184 21.7241 5.967 21.7391 6.874C21.7522 6.95001 21.7535 7.02758 21.7431 7.104C21.7501 7.67 21.7501 8.282 21.7501 8.944V9.056C21.7501 10.894 21.7501 12.35 21.5971 13.489C21.4391 14.661 21.1071 15.61 20.3591 16.359C19.6101 17.107 18.6611 17.439 17.4891 17.597C16.3491 17.75 14.8941 17.75 13.0561 17.75H8.94411C7.10611 17.75 5.65011 17.75 4.51111 17.597C3.33911 17.439 2.39011 17.107 1.64111 16.359C0.893107 15.61 0.561107 14.661 0.403107 13.489C0.250107 12.349 0.250107 10.894 0.250107 9.056V8.944C0.250107 8.282 0.250107 7.67 0.257107 7.104C0.246385 7.02763 0.247397 6.95007 0.260107 6.874C0.276107 5.967 0.313107 5.184 0.403107 4.511C0.561107 3.339 0.893107 2.39 1.64111 1.641C2.39011 0.893 3.33911 0.561 4.51111 0.403C5.65111 0.25 7.10611 0.25 8.94411 0.25ZM1.75211 7.75C1.75011 8.138 1.75011 8.554 1.75011 9C1.75011 10.907 1.75211 12.262 1.89011 13.29C2.02511 14.295 2.27911 14.875 2.70211 15.298C3.12511 15.721 3.70511 15.975 4.71111 16.11C5.73911 16.248 7.09311 16.25 9.00011 16.25H13.0001C14.9071 16.25 16.2621 16.248 17.2901 16.11C18.2951 15.975 18.8751 15.721 19.2981 15.298C19.7211 14.875 19.9751 14.295 20.1101 13.289C20.2481 12.261 20.2501 10.907 20.2501 9C20.2501 8.554 20.2501 8.138 20.2481 7.75H1.75211ZM20.2241 6.25H1.77611C1.79611 5.663 1.83011 5.156 1.89011 4.71C2.02511 3.705 2.27911 3.125 2.70211 2.702C3.12511 2.279 3.70511 2.025 4.71111 1.89C5.73911 1.752 7.09311 1.75 9.00011 1.75H13.0001C14.9071 1.75 16.2621 1.752 17.2901 1.89C18.2951 2.025 18.8751 2.279 19.2981 2.702C19.7211 3.125 19.9751 3.705 20.1101 4.711C20.1701 5.156 20.2041 5.663 20.2241 6.25ZM4.25011 13C4.25011 12.8011 4.32912 12.6103 4.46978 12.4697C4.61043 12.329 4.8012 12.25 5.00011 12.25H9.00011C9.19902 12.25 9.38978 12.329 9.53044 12.4697C9.67109 12.6103 9.75011 12.8011 9.75011 13C9.75011 13.1989 9.67109 13.3897 9.53044 13.5303C9.38978 13.671 9.19902 13.75 9.00011 13.75H5.00011C4.8012 13.75 4.61043 13.671 4.46978 13.5303C4.32912 13.3897 4.25011 13.1989 4.25011 13ZM10.7501 13C10.7501 12.8011 10.8291 12.6103 10.9698 12.4697C11.1104 12.329 11.3012 12.25 11.5001 12.25H13.0001C13.199 12.25 13.3898 12.329 13.5304 12.4697C13.6711 12.6103 13.7501 12.8011 13.7501 13C13.7501 13.1989 13.6711 13.3897 13.5304 13.5303C13.3898 13.671 13.199 13.75 13.0001 13.75H11.5001C11.3012 13.75 11.1104 13.671 10.9698 13.5303C10.8291 13.3897 10.7501 13.1989 10.7501 13Z" fill="#4A85F6"/>
</svg>
