<svg width="142" height="142" viewBox="0 0 142 142" fill="none" xmlns="http://www.w3.org/2000/svg">
<path d="M62.125 95.0246L39.9375 72.8327L46.2077 66.5625L62.125 82.4754L95.7834 48.8125L102.062 55.0916L62.125 95.0246Z" fill="#4A85F6"/>
<path d="M71 8.875C58.7129 8.875 46.7016 12.5186 36.4852 19.345C26.2688 26.1713 18.3061 35.8739 13.604 47.2258C8.90192 58.5777 7.67164 71.0689 10.0687 83.12C12.4658 95.1711 18.3827 106.241 27.071 114.929C35.7594 123.617 46.829 129.534 58.88 131.931C70.9311 134.328 83.4224 133.098 94.7742 128.396C106.126 123.694 115.829 115.731 122.655 105.515C129.481 95.2984 133.125 83.2872 133.125 71C133.125 54.5234 126.58 38.7217 114.929 27.071C103.278 15.4203 87.4766 8.875 71 8.875ZM71 124.25C60.4682 124.25 50.1728 121.127 41.4159 115.276C32.659 109.425 25.8338 101.108 21.8034 91.3779C17.7731 81.6477 16.7185 70.9409 18.7732 60.6114C20.8279 50.282 25.8994 40.7937 33.3466 33.3466C40.7937 25.8994 50.282 20.8278 60.6115 18.7732C70.941 16.7185 81.6478 17.773 91.3779 21.8034C101.108 25.8338 109.425 32.659 115.276 41.4159C121.127 50.1728 124.25 60.4681 124.25 71C124.25 85.1228 118.64 98.6671 108.653 108.653C98.6671 118.64 85.1228 124.25 71 124.25Z" fill="#4A85F6"/>
</svg>
