<svg width="7" height="5" viewBox="0 0 7 5" fill="none" xmlns="http://www.w3.org/2000/svg">
<path d="M6.44246 0.176077C6.54479 0.279041 6.60452 0.421043 6.6085 0.570862C6.61249 0.720681 6.5604 0.866051 6.4637 0.97501L3.45386 4.36671C3.40508 4.42158 3.34646 4.46549 3.28146 4.49584C3.21647 4.52619 3.14641 4.54237 3.07544 4.54343C3.00447 4.54448 2.93402 4.53039 2.86826 4.50198C2.80249 4.47356 2.74274 4.43141 2.69254 4.37801L1.0991 2.68216C1.00528 2.575 0.954198 2.43327 0.956626 2.28683C0.959054 2.14038 1.0148 2.00065 1.11211 1.89708C1.20943 1.79351 1.34072 1.73419 1.47832 1.7316C1.61593 1.72902 1.7491 1.78338 1.84979 1.88323L3.05727 3.16755L5.69177 0.198688C5.78851 0.0897751 5.92194 0.0262105 6.06271 0.0219703C6.20348 0.0177301 6.34008 0.0731616 6.44246 0.176077Z" fill="#4A85F6"/>
</svg>
