<svg width="13" height="14" viewBox="0 0 13 14" fill="none" xmlns="http://www.w3.org/2000/svg">
<rect x="2.19568" y="2.6958" width="9.17391" height="9.17391" rx="1.5" stroke="#4A85F6"/>
<path d="M9.44246 5.17631C9.54479 5.27927 9.60452 5.42127 9.6085 5.57109C9.61249 5.72091 9.5604 5.86628 9.4637 5.97524L6.45386 9.36693C6.40508 9.42181 6.34646 9.46571 6.28146 9.49607C6.21647 9.52642 6.14641 9.5426 6.07544 9.54366C6.00447 9.54471 5.93402 9.53062 5.86826 9.5022C5.80249 9.47379 5.74275 9.43164 5.69254 9.37824L4.0991 7.68239C4.00528 7.57523 3.9542 7.4335 3.95663 7.28705C3.95905 7.14061 4.0148 7.00088 4.11211 6.89731C4.20943 6.79374 4.34072 6.73442 4.47832 6.73183C4.61593 6.72925 4.7491 6.78361 4.84979 6.88346L6.05727 8.16778L8.69177 5.19892C8.78851 5.09 8.92194 5.02644 9.06271 5.0222C9.20348 5.01796 9.34008 5.07339 9.44246 5.17631Z" fill="#4A85F6"/>
</svg>
