<svg width="36" height="37" viewBox="0 0 36 37" fill="none" xmlns="http://www.w3.org/2000/svg">
<path d="M13.5 7.63013H9.5C8.39543 7.63013 7.5 8.52556 7.5 9.63013V29.6301C7.5 30.7347 8.39543 31.6301 9.5 31.6301H26.5C27.6046 31.6301 28.5 30.7347 28.5 29.6301V9.63013C28.5 8.52556 27.6046 7.63013 26.5 7.63013H22.5" stroke="#4A85F6" stroke-width="2" stroke-linecap="round" stroke-linejoin="round"/>
<path d="M18 18.1301H22.5" stroke="#4A85F6" stroke-width="2" stroke-linecap="round" stroke-linejoin="round"/>
<path d="M18 24.1301H22.5" stroke="#4A85F6" stroke-width="2" stroke-linecap="round" stroke-linejoin="round"/>
<path d="M13.5 6.63013C13.5 5.52556 14.3954 4.63013 15.5 4.63013H20.5C21.6046 4.63013 22.5 5.52556 22.5 6.63013V10.6301H13.5V6.63013Z" stroke="#4A85F6" stroke-width="2" stroke-linecap="round" stroke-linejoin="round"/>
<circle cx="13.5" cy="18.1301" r="1.5" fill="#4A85F6"/>
<circle cx="13.5" cy="24.1301" r="1.5" fill="#4A85F6"/>
</svg>
