<svg width="24" height="24" viewBox="0 0 24 24" fill="none" xmlns="http://www.w3.org/2000/svg">
<path fill-rule="evenodd" clip-rule="evenodd" d="M9.70457 15.5133C9.70457 16.0324 9.26991 16.4572 8.73866 16.4572C8.20741 16.4572 7.77275 16.0324 7.77275 15.5133V11.7376C7.77275 11.2185 8.20741 10.7937 8.73866 10.7937C9.26991 10.7937 9.70457 11.2185 9.70457 11.7376V15.5133ZM15.5 15.5133C15.5 16.0324 15.0654 16.4572 14.5341 16.4572C14.0029 16.4572 13.5682 16.0324 13.5682 15.5133V11.7376C13.5682 11.2185 14.0029 10.7937 14.5341 10.7937C15.0654 10.7937 15.5 11.2185 15.5 11.7376V15.5133ZM17.4318 18.345C17.4318 18.8651 16.9991 19.2889 16.4659 19.2889H6.80684C6.27366 19.2889 5.84093 18.8651 5.84093 18.345V7.96201H17.4318V18.345ZM9.70457 4.496C9.70457 4.34969 9.91127 4.18639 10.1875 4.18639H13.0853C13.3615 4.18639 13.5682 4.34969 13.5682 4.496V6.0742H9.70457V4.496ZM20.3296 6.0742H19.3637H15.5V4.496C15.5 3.28402 14.4172 2.29858 13.0853 2.29858H10.1875C8.85554 2.29858 7.77275 3.28402 7.77275 4.496V6.0742H3.90911H2.9432C2.41195 6.0742 1.97729 6.49896 1.97729 7.01811C1.97729 7.53726 2.41195 7.96202 2.9432 7.96202H3.90911V18.345C3.90911 19.9062 5.20923 21.1767 6.80684 21.1767H16.4659C18.0635 21.1767 19.3637 19.9062 19.3637 18.345V7.96202H20.3296C20.8608 7.96202 21.2955 7.53726 21.2955 7.01811C21.2955 6.49896 20.8608 6.0742 20.3296 6.0742Z" fill="#E03131"/>
<mask id="mask0_15_3803" style="mask-type:alpha" maskUnits="userSpaceOnUse" x="1" y="2" width="21" height="20">
<path fill-rule="evenodd" clip-rule="evenodd" d="M9.70457 15.5133C9.70457 16.0324 9.26991 16.4572 8.73866 16.4572C8.20741 16.4572 7.77275 16.0324 7.77275 15.5133V11.7376C7.77275 11.2185 8.20741 10.7937 8.73866 10.7937C9.26991 10.7937 9.70457 11.2185 9.70457 11.7376V15.5133ZM15.5 15.5133C15.5 16.0324 15.0654 16.4572 14.5341 16.4572C14.0029 16.4572 13.5682 16.0324 13.5682 15.5133V11.7376C13.5682 11.2185 14.0029 10.7937 14.5341 10.7937C15.0654 10.7937 15.5 11.2185 15.5 11.7376V15.5133ZM17.4318 18.345C17.4318 18.8651 16.9991 19.2889 16.4659 19.2889H6.80684C6.27366 19.2889 5.84093 18.8651 5.84093 18.345V7.96201H17.4318V18.345ZM9.70457 4.496C9.70457 4.34969 9.91127 4.18639 10.1875 4.18639H13.0853C13.3615 4.18639 13.5682 4.34969 13.5682 4.496V6.0742H9.70457V4.496ZM20.3296 6.0742H19.3637H15.5V4.496C15.5 3.28402 14.4172 2.29858 13.0853 2.29858H10.1875C8.85554 2.29858 7.77275 3.28402 7.77275 4.496V6.0742H3.90911H2.9432C2.41195 6.0742 1.97729 6.49896 1.97729 7.01811C1.97729 7.53726 2.41195 7.96202 2.9432 7.96202H3.90911V18.345C3.90911 19.9062 5.20923 21.1767 6.80684 21.1767H16.4659C18.0635 21.1767 19.3637 19.9062 19.3637 18.345V7.96202H20.3296C20.8608 7.96202 21.2955 7.53726 21.2955 7.01811C21.2955 6.49896 20.8608 6.0742 20.3296 6.0742Z" fill="#E03131"/>
</mask>
<g mask="url(#mask0_15_3803)">
</g>
</svg>
