<svg width="20" height="19" viewBox="0 0 20 19" fill="none" xmlns="http://www.w3.org/2000/svg">
<path fill-rule="evenodd" clip-rule="evenodd" d="M8.09896 12.252C8.09896 12.6645 7.74271 13.002 7.30729 13.002C6.87187 13.002 6.51562 12.6645 6.51562 12.252V9.25195C6.51562 8.83945 6.87187 8.50195 7.30729 8.50195C7.74271 8.50195 8.09896 8.83945 8.09896 9.25195V12.252ZM12.849 12.252C12.849 12.6645 12.4927 13.002 12.0573 13.002C11.6219 13.002 11.2656 12.6645 11.2656 12.252V9.25195C11.2656 8.83945 11.6219 8.50195 12.0573 8.50195C12.4927 8.50195 12.849 8.83945 12.849 9.25195V12.252ZM14.4323 14.502C14.4323 14.9152 14.0776 15.252 13.6406 15.252H5.72396C5.28696 15.252 4.93229 14.9152 4.93229 14.502V6.25195H14.4323V14.502ZM8.09896 3.49795C8.09896 3.3817 8.26837 3.25195 8.49479 3.25195H10.8698C11.0962 3.25195 11.2656 3.3817 11.2656 3.49795V4.75195H8.09896V3.49795ZM16.8073 4.75195H16.0156H12.849V3.49795C12.849 2.53495 11.9615 1.75195 10.8698 1.75195H8.49479C7.40308 1.75195 6.51563 2.53495 6.51563 3.49795V4.75195H3.34896H2.55729C2.12188 4.75195 1.76562 5.08945 1.76562 5.50195C1.76562 5.91445 2.12188 6.25195 2.55729 6.25195H3.34896V14.502C3.34896 15.7425 4.41454 16.752 5.72396 16.752H13.6406C14.95 16.752 16.0156 15.7425 16.0156 14.502V6.25195H16.8073C17.2427 6.25195 17.599 5.91445 17.599 5.50195C17.599 5.08945 17.2427 4.75195 16.8073 4.75195Z" fill="#C5CEE0"/>
<mask id="mask0_3159_8722" style="mask-type:alpha" maskUnits="userSpaceOnUse" x="1" y="1" width="17" height="16">
<path fill-rule="evenodd" clip-rule="evenodd" d="M8.09896 12.252C8.09896 12.6645 7.74271 13.002 7.30729 13.002C6.87187 13.002 6.51562 12.6645 6.51562 12.252V9.25195C6.51562 8.83945 6.87187 8.50195 7.30729 8.50195C7.74271 8.50195 8.09896 8.83945 8.09896 9.25195V12.252ZM12.849 12.252C12.849 12.6645 12.4927 13.002 12.0573 13.002C11.6219 13.002 11.2656 12.6645 11.2656 12.252V9.25195C11.2656 8.83945 11.6219 8.50195 12.0573 8.50195C12.4927 8.50195 12.849 8.83945 12.849 9.25195V12.252ZM14.4323 14.502C14.4323 14.9152 14.0776 15.252 13.6406 15.252H5.72396C5.28696 15.252 4.93229 14.9152 4.93229 14.502V6.25195H14.4323V14.502ZM8.09896 3.49795C8.09896 3.3817 8.26837 3.25195 8.49479 3.25195H10.8698C11.0962 3.25195 11.2656 3.3817 11.2656 3.49795V4.75195H8.09896V3.49795ZM16.8073 4.75195H16.0156H12.849V3.49795C12.849 2.53495 11.9615 1.75195 10.8698 1.75195H8.49479C7.40308 1.75195 6.51563 2.53495 6.51563 3.49795V4.75195H3.34896H2.55729C2.12188 4.75195 1.76562 5.08945 1.76562 5.50195C1.76562 5.91445 2.12188 6.25195 2.55729 6.25195H3.34896V14.502C3.34896 15.7425 4.41454 16.752 5.72396 16.752H13.6406C14.95 16.752 16.0156 15.7425 16.0156 14.502V6.25195H16.8073C17.2427 6.25195 17.599 5.91445 17.599 5.50195C17.599 5.08945 17.2427 4.75195 16.8073 4.75195Z" fill="white"/>
</mask>
<g mask="url(#mask0_3159_8722)">
</g>
</svg>
