<svg width="24" height="24" viewBox="0 0 24 24" fill="none" xmlns="http://www.w3.org/2000/svg">
<path d="M15.304 4.84399L18.156 7.69599M8 6.99999H5C4.73478 6.99999 4.48043 7.10535 4.29289 7.29289C4.10536 7.48042 4 7.73478 4 7.99999V18C4 18.2652 4.10536 18.5196 4.29289 18.7071C4.48043 18.8946 4.73478 19 5 19H16C16.2652 19 16.5196 18.8946 16.7071 18.7071C16.8946 18.5196 17 18.2652 17 18V13.5M19.409 3.58999C19.5964 3.7773 19.745 3.99969 19.8464 4.24445C19.9478 4.48921 20 4.75156 20 5.01649C20 5.28143 19.9478 5.54378 19.8464 5.78854C19.745 6.0333 19.5964 6.25569 19.409 6.44299L12.565 13.287L9 14L9.713 10.435L16.557 3.59099C16.7442 3.40353 16.9664 3.25481 17.2111 3.15334C17.4558 3.05186 17.7181 2.99963 17.983 2.99963C18.2479 2.99963 18.5102 3.05186 18.7549 3.15334C18.9996 3.25481 19.2218 3.40353 19.409 3.59099V3.58999Z" stroke="#C5CEE0" stroke-width="2" stroke-linecap="round" stroke-linejoin="round"/>
</svg>
