<svg width="30" height="30" viewBox="0 0 30 30" fill="none" xmlns="http://www.w3.org/2000/svg">
<circle cx="15" cy="15" r="15" fill="#51D67C"/>
<path fill-rule="evenodd" clip-rule="evenodd" d="M12.4334 9C13.0002 9 13.4637 9.44202 13.4981 10.0001L21.1001 10C22.2047 10 23.1001 10.8954 23.1001 12V19C23.1001 20.1046 22.2047 21 21.1001 21H9.1001C7.99553 21 7.1001 20.1046 7.1001 19V12C7.1001 10.8954 7.99553 10 9.1001 10H9.23343C9.23343 9.44772 9.68115 9 10.2334 9H12.4334Z" stroke="white" stroke-width="1.5" stroke-linecap="round" stroke-linejoin="round"/>
<path d="M15.6001 18C16.9808 18 18.1001 16.8807 18.1001 15.5C18.1001 14.1193 16.9808 13 15.6001 13C14.2194 13 13.1001 14.1193 13.1001 15.5C13.1001 16.8807 14.2194 18 15.6001 18Z" stroke="white" stroke-width="1.5" stroke-linecap="round" stroke-linejoin="round"/>
</svg>
