<svg width="48" height="39" viewBox="0 0 48 39" fill="none" xmlns="http://www.w3.org/2000/svg">
<rect y="8.31348" width="48" height="30.1867" rx="2.86567" fill="#57B0FF"/>
<path d="M16.7191 20.8584L23.2357 14.3977C23.6575 13.9795 24.3387 13.9828 24.7564 14.4052L31.1452 20.8659C31.8163 21.5446 31.3355 22.6961 30.381 22.6961H27.0757C26.8607 22.6961 26.6864 22.8704 26.6864 23.0854V30.2206C26.6864 31.6549 25.5237 32.8176 24.0894 32.8176C22.6551 32.8176 21.4923 31.6549 21.4923 30.2206V23.0854C21.4923 22.8704 21.3181 22.6961 21.1031 22.6961H17.4757C16.5161 22.6961 16.0377 21.534 16.7191 20.8584Z" fill="#308EFF"/>
<path d="M3.40283 4.08209V8.66817H44.0595L43.081 7.24534C42.0118 5.69051 40.2457 4.76165 38.3587 4.76165H27.5819L24.1212 1.33063C23.5846 0.798541 22.8594 0.5 22.1037 0.5H6.98492C5.00659 0.5 3.40283 2.10376 3.40283 4.08209Z" fill="#156CD7"/>
</svg>
