<svg width="17" height="13" viewBox="0 0 17 13" fill="none" xmlns="http://www.w3.org/2000/svg">
<path d="M9.98486 4.89209V13H8.38818V8.37109C8.38818 8.06836 8.39551 7.76562 8.41016 7.46289C8.4248 7.16016 8.44434 6.87207 8.46875 6.59863H8.4248L5.95654 13H4.60156L2.15527 6.59131H2.104C2.12842 6.86963 2.14551 7.15771 2.15527 7.45557C2.16992 7.75342 2.17725 8.07568 2.17725 8.42236V13H0.580566V4.89209H2.98291L5.29736 10.9492L7.64844 4.89209H9.98486ZM13.8154 0.20459C14.4697 0.20459 14.9849 0.358398 15.3608 0.666016C15.7417 0.96875 15.9321 1.36914 15.9321 1.86719C15.9321 2.24316 15.8271 2.55811 15.6172 2.81201C15.4121 3.06104 15.1265 3.24414 14.7603 3.36133V3.42725C15.2046 3.52002 15.5439 3.70313 15.7783 3.97656C16.0127 4.24512 16.1299 4.56738 16.1299 4.94336C16.1299 5.5293 15.9175 5.99805 15.4927 6.34961C15.0679 6.69629 14.4111 6.86963 13.5225 6.86963C13.1562 6.86963 12.812 6.83301 12.4897 6.75977C12.1675 6.68652 11.8525 6.57178 11.5449 6.41553V5.27295C11.8721 5.44873 12.1992 5.59033 12.5264 5.69775C12.8584 5.80029 13.1904 5.85156 13.5225 5.85156C13.9668 5.85156 14.2939 5.76611 14.5039 5.59521C14.7139 5.41943 14.8188 5.17773 14.8188 4.87012C14.8188 4.58203 14.7041 4.35742 14.4746 4.19629C14.2451 4.03027 13.8789 3.94727 13.376 3.94727H12.5337V2.97314H13.3027C13.8105 2.97314 14.1597 2.88281 14.3501 2.70215C14.5454 2.5166 14.6431 2.29199 14.6431 2.02832C14.6431 1.7793 14.5601 1.58643 14.394 1.44971C14.228 1.30811 14.0059 1.2373 13.7275 1.2373C13.4541 1.2373 13.1978 1.28613 12.9585 1.38379C12.7241 1.48145 12.4702 1.62305 12.1968 1.80859L11.5742 0.966309C11.877 0.741699 12.2065 0.558594 12.563 0.416992C12.9194 0.275391 13.3369 0.20459 13.8154 0.20459Z" fill="#5C5C5C"/>
</svg>
