<svg width="24" height="23" viewBox="0 0 24 23" fill="none" xmlns="http://www.w3.org/2000/svg">
<path fill-rule="evenodd" clip-rule="evenodd" d="M2.1158 6.47688C1.71309 6.72857 1.38102 7.07856 1.1508 7.49392C0.92059 7.90929 0.799804 8.37638 0.799805 8.85128V19.9001C0.799805 20.6427 1.0948 21.3549 1.61991 21.88C2.14501 22.4051 2.8572 22.7001 3.5998 22.7001H20.3998C21.1424 22.7001 21.8546 22.4051 22.3797 21.88C22.9048 21.3549 23.1998 20.6427 23.1998 19.9001V8.85128C23.1998 8.37638 23.079 7.90929 22.8488 7.49392C22.6186 7.07856 22.2865 6.72857 21.8838 6.47688L13.4838 1.22688C13.0388 0.948745 12.5246 0.80127 11.9998 0.80127C11.475 0.80127 10.9608 0.948745 10.5158 1.22688L2.1158 6.47688ZM5.7768 9.86908C5.62384 9.76704 5.45228 9.69613 5.27191 9.6604C5.09154 9.62466 4.9059 9.62481 4.72559 9.66082C4.54528 9.69683 4.37382 9.768 4.22102 9.87027C4.06821 9.97255 3.93704 10.1039 3.83501 10.2569C3.73297 10.4098 3.66206 10.5814 3.62632 10.7618C3.59059 10.9421 3.59073 11.1278 3.62674 11.3081C3.69947 11.6723 3.91388 11.9926 4.22281 12.1987L11.2228 16.8649C11.4529 17.0184 11.7232 17.1003 11.9998 17.1003C12.2764 17.1003 12.5467 17.0184 12.7768 16.8649L19.7768 12.1987C20.0857 11.9926 20.3001 11.6723 20.3729 11.3081C20.4456 10.9439 20.3707 10.5658 20.1646 10.2569C19.9585 9.94795 19.6382 9.73354 19.274 9.66082C18.9099 9.58809 18.5317 9.663 18.2228 9.86908L11.9998 14.0173L5.7768 9.86908Z" fill="#4A85F6"/>
</svg>
