<svg width="27" height="28" viewBox="0 0 27 28" fill="none" xmlns="http://www.w3.org/2000/svg">
<g clip-path="url(#clip0_1374_2834)">
<path d="M16.9314 6.24512C18.0302 6.4595 19.04 6.99691 19.8317 7.78854C20.6233 8.58018 21.1607 9.59004 21.3751 10.6889M16.9314 1.74512C19.2143 1.99873 21.3431 3.02106 22.9684 4.64425C24.5936 6.26744 25.6186 8.395 25.8751 10.6776M24.7501 19.6551V23.0301C24.7514 23.3434 24.6872 23.6536 24.5617 23.9406C24.4362 24.2277 24.2521 24.4854 24.0212 24.6972C23.7903 24.909 23.5178 25.0703 23.221 25.1707C22.9241 25.271 22.6097 25.3083 22.2976 25.2801C18.8358 24.904 15.5105 23.721 12.5889 21.8264C9.87066 20.0991 7.56611 17.7946 5.83886 15.0764C3.93758 12.1415 2.75438 8.79999 2.38511 5.32262C2.35699 5.01152 2.39397 4.69797 2.49367 4.40194C2.59337 4.10592 2.75363 3.83389 2.96422 3.60319C3.17481 3.37249 3.43114 3.18817 3.71687 3.06195C4.00261 2.93574 4.31149 2.87041 4.62386 2.87012H7.99886C8.54483 2.86474 9.07412 3.05808 9.48809 3.41409C9.90206 3.7701 10.1724 4.26449 10.2489 4.80512C10.3913 5.88519 10.6555 6.94569 11.0364 7.96637C11.1877 8.36903 11.2205 8.80665 11.1308 9.22736C11.041 9.64807 10.8326 10.0342 10.5301 10.3401L9.10136 11.7689C10.7029 14.5854 13.0349 16.9174 15.8514 18.5189L17.2801 17.0901C17.586 16.7876 17.9722 16.5792 18.3929 16.4895C18.8136 16.3997 19.2512 16.4325 19.6539 16.5839C20.6745 16.9647 21.735 17.2289 22.8151 17.3714C23.3616 17.4485 23.8607 17.7237 24.2175 18.1448C24.5742 18.5659 24.7638 19.1034 24.7501 19.6551Z" stroke="#4A85F6" stroke-width="2" stroke-linecap="round" stroke-linejoin="round"/>
</g>
<defs>
<clipPath id="clip0_1374_2834">
<rect width="27" height="27" fill="white" transform="translate(0 0.620117)"/>
</clipPath>
</defs>
</svg>
