<svg width="30" height="30" viewBox="0 0 30 30" fill="none" xmlns="http://www.w3.org/2000/svg">
<path d="M15 21.25H23.75M7.5 21.25H9.98758H7.5Z" stroke="#4A85F6" stroke-width="1.5" stroke-linecap="round" stroke-linejoin="round"/>
<path d="M21.2744 15H23.75M7.5 15H16.0504H7.5Z" stroke="#4A85F6" stroke-width="1.5" stroke-linecap="round" stroke-linejoin="round"/>
<path d="M14.9951 8.75H23.75M7.5 8.75H9.9872H7.5Z" stroke="#4A85F6" stroke-width="1.5" stroke-linecap="round" stroke-linejoin="round"/>
<path d="M12.5 11.25C13.8807 11.25 15 10.1307 15 8.75C15 7.36929 13.8807 6.25 12.5 6.25C11.1193 6.25 10 7.36929 10 8.75C10 10.1307 11.1193 11.25 12.5 11.25Z" stroke="#4A85F6" stroke-width="1.5"/>
<path d="M18.75 17.5C20.1307 17.5 21.25 16.3807 21.25 15C21.25 13.6193 20.1307 12.5 18.75 12.5C17.3693 12.5 16.25 13.6193 16.25 15C16.25 16.3807 17.3693 17.5 18.75 17.5Z" stroke="#4A85F6" stroke-width="1.5"/>
<path d="M12.5 23.75C13.8807 23.75 15 22.6307 15 21.25C15 19.8693 13.8807 18.75 12.5 18.75C11.1193 18.75 10 19.8693 10 21.25C10 22.6307 11.1193 23.75 12.5 23.75Z" stroke="#4A85F6" stroke-width="1.5"/>
</svg>
