<svg width="24" height="24" viewBox="0 0 24 24" fill="none" xmlns="http://www.w3.org/2000/svg">
<path d="M21.6003 11.22L17.0003 7.52V5C17.0248 4.49494 16.8481 4.00078 16.5088 3.62587C16.1695 3.25095 15.6953 3.02588 15.1903 3H3.79035C3.28891 3.03096 2.81987 3.25823 2.48482 3.63258C2.14978 4.00693 1.97572 4.49822 2.00035 5V15C1.99106 15.3971 2.10024 15.788 2.31395 16.1228C2.52767 16.4576 2.83625 16.7212 3.20035 16.88C3.01618 17.3305 2.9444 17.8191 2.99121 18.3036C3.03802 18.7881 3.202 19.2539 3.46902 19.6609C3.73603 20.0678 4.09805 20.4037 4.52385 20.6395C4.94964 20.8753 5.42642 21.004 5.91304 21.0144C6.39966 21.0249 6.88151 20.9167 7.31701 20.6994C7.75252 20.482 8.12859 20.1619 8.4128 19.7668C8.697 19.3717 8.88078 18.9133 8.9483 18.4313C9.01582 17.9492 8.96504 17.458 8.80035 17H15.1603C14.9959 17.4531 14.943 17.9392 15.0063 18.4171C15.0695 18.895 15.247 19.3506 15.5237 19.7454C15.8003 20.1401 16.1681 20.4624 16.5957 20.6849C17.0233 20.9074 17.4983 21.0235 17.9803 21.0235C18.4624 21.0235 18.9374 20.9074 19.365 20.6849C19.7926 20.4624 20.1604 20.1401 20.437 19.7454C20.7137 19.3506 20.8912 18.895 20.9544 18.4171C21.0177 17.9392 20.9648 17.4531 20.8003 17H21.0003C21.2656 17 21.5199 16.8946 21.7075 16.7071C21.895 16.5196 22.0003 16.2652 22.0003 16V12C21.9973 11.8481 21.9597 11.699 21.8904 11.5638C21.8211 11.4287 21.7219 11.3111 21.6003 11.22ZM20.0003 12.48V15H17.0003V10.08L20.0003 12.48ZM7.00035 18C7.00035 18.1978 6.9417 18.3911 6.83181 18.5556C6.72193 18.72 6.56575 18.8482 6.38303 18.9239C6.2003 18.9996 5.99924 19.0194 5.80526 18.9808C5.61127 18.9422 5.43309 18.847 5.29324 18.7071C5.15339 18.5673 5.05815 18.3891 5.01956 18.1951C4.98097 18.0011 5.00078 17.8 5.07647 17.6173C5.15215 17.4346 5.28033 17.2784 5.44478 17.1685C5.60922 17.0586 5.80256 17 6.00035 17C6.26556 17 6.51992 17.1054 6.70745 17.2929C6.89499 17.4804 7.00035 17.7348 7.00035 18ZM12.0003 15H4.00035V5H15.0003V15H12.0003ZM19.0003 18C19.0003 18.1978 18.9417 18.3911 18.8318 18.5556C18.7219 18.72 18.5658 18.8482 18.383 18.9239C18.2003 18.9996 17.9992 19.0194 17.8053 18.9808C17.6113 18.9422 17.4331 18.847 17.2932 18.7071C17.1534 18.5673 17.0581 18.3891 17.0196 18.1951C16.981 18.0011 17.0008 17.8 17.0765 17.6173C17.1522 17.4346 17.2803 17.2784 17.4448 17.1685C17.6092 17.0586 17.8026 17 18.0003 17C18.2656 17 18.5199 17.1054 18.7075 17.2929C18.895 17.4804 19.0003 17.7348 19.0003 18Z" fill="#4A85F6" />
</svg>
