<svg width="78" height="78" viewBox="0 0 78 78" fill="none" xmlns="http://www.w3.org/2000/svg">
<path d="M43.875 36.5626H34.9375V26.6501L34.9408 26.0066L34.9473 25.8668C34.9749 25.6992 35.0543 25.5445 35.1744 25.4245C35.2945 25.3044 35.4492 25.2249 35.6167 25.1973C35.8767 25.1903 36.1367 25.187 36.3968 25.1876H43.875C45.3834 25.1876 46.8301 25.7868 47.8967 26.8534C48.9633 27.92 49.5625 29.3666 49.5625 30.8751C49.5625 32.3835 48.9633 33.8301 47.8967 34.8967C46.8301 35.9633 45.3834 36.5626 43.875 36.5626Z" fill="#0FA958"/>
<path fill-rule="evenodd" clip-rule="evenodd" d="M71.5 39C71.5 56.9497 56.9497 71.5 39 71.5C21.0503 71.5 6.5 56.9497 6.5 39C6.5 21.0503 21.0503 6.5 39 6.5C56.9497 6.5 71.5 21.0503 71.5 39ZM26.8125 45.5C26.8125 44.8535 27.0693 44.2335 27.5264 43.7764C27.9835 43.3193 28.6035 43.0625 29.25 43.0625H30.0625V41.4375H29.25C28.6035 41.4375 27.9835 41.1807 27.5264 40.7236C27.0693 40.2665 26.8125 39.6465 26.8125 39C26.8125 38.3535 27.0693 37.7335 27.5264 37.2764C27.9835 36.8193 28.6035 36.5625 29.25 36.5625H30.0625V26.5265C30.0625 26.052 30.0625 25.5612 30.134 25.1095C30.3222 23.9239 30.8807 22.8283 31.7295 21.9795C32.5783 21.1307 33.6739 20.5722 34.8595 20.384C35.3112 20.3125 35.802 20.3125 36.2733 20.3125H43.875C46.6763 20.3125 49.363 21.4253 51.3438 23.4062C53.3247 25.387 54.4375 28.0737 54.4375 30.875C54.4375 33.6763 53.3247 36.363 51.3438 38.3438C49.363 40.3247 46.6763 41.4375 43.875 41.4375H34.9375V43.0625H39C39.6465 43.0625 40.2665 43.3193 40.7236 43.7764C41.1807 44.2335 41.4375 44.8535 41.4375 45.5C41.4375 46.1465 41.1807 46.7665 40.7236 47.2236C40.2665 47.6807 39.6465 47.9375 39 47.9375H34.9375V55.25C34.9375 55.8965 34.6807 56.5165 34.2236 56.9736C33.7665 57.4307 33.1465 57.6875 32.5 57.6875C31.8535 57.6875 31.2335 57.4307 30.7764 56.9736C30.3193 56.5165 30.0625 55.8965 30.0625 55.25V47.9375H29.25C28.6035 47.9375 27.9835 47.6807 27.5264 47.2236C27.0693 46.7665 26.8125 46.1465 26.8125 45.5Z" fill="#0FA958"/>
</svg>
