<svg width="71" height="55" viewBox="0 0 71 55" fill="none" xmlns="http://www.w3.org/2000/svg">
<path d="M41.1864 16.2239C40.836 15.4107 41.3097 14.5532 42.0991 14.1519C48.6869 10.8033 51.9265 7.85196 54.7011 1.333C54.9716 0.697443 55.7989 0.517285 56.2931 0.999822C63.9071 8.43373 64.0531 20.6324 56.6192 28.2464L55.903 28.98C55.7221 29.1652 55.4446 29.2169 55.2119 29.1034C48.9789 26.0611 42.846 20.0758 41.1864 16.2239Z" fill="url(#paint0_linear_1_1538)"/>
<path d="M29.6537 16.2969C30.0531 15.4651 29.6275 14.5299 28.8266 14.0716C21.2183 9.71793 18.0056 6.63967 16.2073 1.52973C15.9665 0.845653 15.0916 0.610654 14.5722 1.11674C7.01031 8.48446 6.85291 20.5873 14.2206 28.1492L15.0925 29.044C15.2473 29.2029 15.4738 29.2682 15.6842 29.1979C19.8499 27.808 27.425 20.9389 29.6537 16.2969Z" fill="url(#paint1_linear_1_1538)"/>
<path d="M17.8871 34.843C15.8457 33.5645 15.8774 30.4964 17.9329 29.2407C24.7365 25.0846 28.5115 20.9642 32.6867 14.2033C33.9129 12.2177 36.841 12.2036 38.1033 14.1664C42.4155 20.8716 46.5494 25.0624 53.4093 29.4234C55.3285 30.6435 55.4012 33.4759 53.519 34.7522C46.0017 39.8497 41.8311 43.8731 38.232 49.4328C36.9172 51.4639 33.8294 51.4538 32.5597 49.3941C28.751 43.2155 24.7015 39.1107 17.8871 34.843Z" fill="url(#paint2_linear_1_1538)"/>
<path d="M24.0002 32.743C24.0002 30.7629 25.6054 29.1576 27.5855 29.1576C29.5657 29.1576 31.1709 30.7629 31.1709 32.743C31.1709 34.7232 29.5657 33.8361 27.5855 33.8361C25.6054 33.8361 24.0002 34.7232 24.0002 32.743Z" fill="white"/>
<path d="M46.2586 32.743C46.2586 30.7629 44.6534 29.1576 42.6732 29.1576C40.6931 29.1576 39.0879 30.7629 39.0879 32.743C39.0879 34.7232 40.6931 33.8361 42.6732 33.8361C44.6534 33.8361 46.2586 34.7232 46.2586 32.743Z" fill="white"/>
<defs>
<linearGradient id="paint0_linear_1_1538" x1="50.6543" y1="22.3019" x2="56.4598" y2="1.26088" gradientUnits="userSpaceOnUse">
<stop stop-color="#FF9500"/>
<stop offset="1" stop-color="#FF7272"/>
</linearGradient>
<linearGradient id="paint1_linear_1_1538" x1="20.2717" y1="21.9335" x2="14.6573" y2="1.36627" gradientUnits="userSpaceOnUse">
<stop offset="0.439" stop-color="#FF9500"/>
<stop offset="1" stop-color="#FF7272"/>
</linearGradient>
<linearGradient id="paint2_linear_1_1538" x1="35.365" y1="10.9769" x2="35.1414" y2="52.7995" gradientUnits="userSpaceOnUse">
<stop offset="0.48" stop-color="#FF9500"/>
<stop offset="1" stop-color="#FF7272"/>
</linearGradient>
</defs>
</svg>
